# xmcd
#
# Track frame offsets:
#	150
#	20530
#	40735
#	68300
#	92020
#	106122
#	119042
#	136687
#	152875
#	172220
#	188820
#	203705
#	223562
#	244142
#	262402
#	280675
#	293392
#
# Disc length: 4175 seconds
#
# Revision: 1
# Processed by: cddbd v1.5.1PL0 Copyright (c) Steve Scherf et al.
# Submitted via: CDex 1.50Beta5
#
DISCID=f2104d11
DTITLE=さまざまなアーティスト - Picnic
DYEAR=1900
DGENRE=
TTITLE0=イントゥ・ザ・サン
TTITLE1=ドント・ノット・ノー・ワン・レット・ユー・ダウン
TTITLE2=ネヴァー・トゥー・レイト
TTITLE3=アモール・セグレド
TTITLE4=クレア
TTITLE5=チコ・アンド・ザ・マン
TTITLE6=ボンフィンに流れる水
TTITLE7=ベベ・シレミケ
TTITLE8=シネマ・シネマ
TTITLE9=ファインド・マイ・ラヴ
TTITLE10=ドゥ・ドゥ・ドゥ
TTITLE11=リボン・イン・ザ・スカイ
TTITLE12=ビフォア・ザ・レイン
TTITLE13=サンシャワー
TTITLE14=オール・デイ・ミュージック
TTITLE15=うわさの男
TTITLE16=太陽のかけら
EXTD=
EXTT0=
EXTT1=
EXTT2=
EXTT3=
EXTT4=
EXTT5=
EXTT6=
EXTT7=
EXTT8=
EXTT9=
EXTT10=
EXTT11=
EXTT12=
EXTT13=
EXTT14=
EXTT15=
EXTT16=
PLAYORDER=
